<svg width="29" height="30" viewBox="0 0 29 30" fill="none" xmlns="http://www.w3.org/2000/svg">
<g filter="url(#filter0_d_0_99)">
<path d="M24.0238 7.14292H10.9286M8.54763 7.14292H4.9762M24.0238 19.0477H10.9286M8.54763 19.0477H4.9762M18.0714 13.0953H4.9762M24.0238 13.0953H20.4524M9.7381 4.76196C10.0538 4.76196 10.3566 4.88739 10.5799 5.11065C10.8032 5.3339 10.9286 5.63671 10.9286 5.95244V8.33339C10.9286 8.64913 10.8032 8.95193 10.5799 9.17518C10.3566 9.39844 10.0538 9.52387 9.7381 9.52387C9.42237 9.52387 9.11957 9.39844 8.89631 9.17518C8.67305 8.95193 8.54763 8.64913 8.54763 8.33339V5.95244C8.54763 5.63671 8.67305 5.3339 8.89631 5.11065C9.11957 4.88739 9.42237 4.76196 9.7381 4.76196V4.76196ZM9.7381 16.6667C10.0538 16.6667 10.3566 16.7921 10.5799 17.0154C10.8032 17.2387 10.9286 17.5415 10.9286 17.8572V20.2382C10.9286 20.5539 10.8032 20.8567 10.5799 21.0799C10.3566 21.3032 10.0538 21.4286 9.7381 21.4286C9.42237 21.4286 9.11957 21.3032 8.89631 21.0799C8.67305 20.8567 8.54763 20.5539 8.54763 20.2382V17.8572C8.54763 17.5415 8.67305 17.2387 8.89631 17.0154C9.11957 16.7921 9.42237 16.6667 9.7381 16.6667ZM19.2619 10.7143C19.5776 10.7143 19.8804 10.8398 20.1037 11.063C20.327 11.2863 20.4524 11.5891 20.4524 11.9048V14.2858C20.4524 14.6015 20.327 14.9043 20.1037 15.1276C19.8804 15.3508 19.5776 15.4762 19.2619 15.4762C18.9462 15.4762 18.6434 15.3508 18.4201 15.1276C18.1969 14.9043 18.0714 14.6015 18.0714 14.2858V11.9048C18.0714 11.5891 18.1969 11.2863 18.4201 11.063C18.6434 10.8398 18.9462 10.7143 19.2619 10.7143V10.7143Z" stroke="black" stroke-linecap="round" stroke-linejoin="round"/>
</g>
<defs>
<filter id="filter0_d_0_99" x="-2" y="0" width="33" height="33" filterUnits="userSpaceOnUse" color-interpolation-filters="sRGB">
<feFlood flood-opacity="0" result="BackgroundImageFix"/>
<feColorMatrix in="SourceAlpha" type="matrix" values="0 0 0 0 0 0 0 0 0 0 0 0 0 0 0 0 0 0 127 0" result="hardAlpha"/>
<feOffset dy="4"/>
<feGaussianBlur stdDeviation="2"/>
<feComposite in2="hardAlpha" operator="out"/>
<feColorMatrix type="matrix" values="0 0 0 0 0 0 0 0 0 0 0 0 0 0 0 0 0 0 0.25 0"/>
<feBlend mode="normal" in2="BackgroundImageFix" result="effect1_dropShadow_0_99"/>
<feBlend mode="normal" in="SourceGraphic" in2="effect1_dropShadow_0_99" result="shape"/>
</filter>
</defs>
</svg>